<?xml version="1.0" standalone="no"?>
<!DOCTYPE svg PUBLIC "-//W3C//DTD SVG 20010904//EN"
 "http://www.w3.org/TR/2001/REC-SVG-20010904/DTD/svg10.dtd">
<svg version="1.0" xmlns="http://www.w3.org/2000/svg"
 width="256.000000pt" height="256.000000pt" viewBox="0 0 256.000000 256.000000"
 preserveAspectRatio="xMidYMid meet">
<metadata>
Created by potrace 1.10, written by Peter Selinger 2001-2011
</metadata>
<g transform="translate(0.000000,256.000000) scale(0.100000,-0.100000)"
fill="#000000" stroke="none">
<path d="M1592 1125 c-24 -37 -35 -41 -78 -25 -25 10 -31 7 -67 -28 l-39 -39
15 -36 c17 -39 14 -44 -33 -66 -24 -11 -24 -11 3 9 15 12 27 27 27 33 0 9 -3
8 -8 0 -4 -7 -24 -14 -44 -15 -35 -3 -35 -3 -20 -28 13 -21 10 -20 -20 8 -35
33 -36 33 -83 21 -34 -9 -52 -20 -65 -41 -10 -16 -19 -25 -21 -19 -5 14 -61
-1 -67 -18 -3 -10 6 -12 37 -9 22 2 41 0 41 -4 0 -5 -19 -8 -43 -8 -42 0 -44
1 -53 37 -9 39 -29 53 -87 67 -23 5 -33 1 -57 -26 l-30 -33 -45 24 c-55 29
-73 21 -21 -10 20 -11 36 -25 36 -30 0 -13 32 1 65 30 19 16 17 12 -6 -11 -45
-45 -27 -61 23 -20 20 17 44 27 65 27 30 0 34 -4 39 -33 4 -19 14 -36 25 -40
10 -4 18 -11 18 -17 1 -5 24 -10 53 -10 l52 0 9 39 c8 32 16 41 49 54 37 14
38 17 22 29 -10 7 -14 13 -9 13 5 0 24 -15 43 -32 l33 -33 40 22 c23 12 36 16
30 9 -7 -8 -25 -20 -42 -27 -25 -10 -28 -14 -15 -21 24 -13 76 18 88 54 7 19
13 26 18 18 5 -8 9 -5 12 8 3 11 -3 29 -15 43 l-19 24 16 -27 c9 -16 13 -28 8
-28 -5 0 -16 16 -25 35 -16 33 -16 36 1 56 29 35 47 40 86 24 21 -9 37 -11 41
-5 3 5 11 7 18 4 8 -3 24 0 38 6 24 11 24 11 1 6 -22 -4 -23 -3 -8 13 19 20
22 46 4 35 -8 -5 -9 -2 -5 9 11 29 -7 18 -31 -18z"/>
<path d="M1940 943 c0 -10 -14 -29 -31 -42 -16 -12 -28 -28 -26 -34 2 -7 -2
-32 -9 -57 -12 -41 -12 -46 8 -67 21 -22 21 -23 2 -45 -10 -13 -20 -24 -21
-26 0 -2 -13 4 -28 14 -23 15 -32 16 -61 5 -19 -7 -38 -9 -44 -6 -5 3 -10 2
-10 -3 0 -5 -9 -12 -21 -15 -11 -3 -25 -19 -32 -36 -10 -28 -14 -30 -49 -25
-62 10 -43 -27 24 -47 30 -8 35 -7 58 22 28 34 120 71 142 57 23 -14 54 -8 76
15 26 28 27 45 7 75 -25 35 -10 114 26 141 34 25 36 40 9 71 -19 22 -20 22
-20 3z"/>
</g>
</svg>
